%TF.GenerationSoftware,KiCad,Pcbnew,(6.0.1)*%
%TF.CreationDate,2022-01-23T22:32:30+01:00*%
%TF.ProjectId,pluto,706c7574-6f2e-46b6-9963-61645f706362,1.0*%
%TF.SameCoordinates,Original*%
%TF.FileFunction,Legend,Top*%
%TF.FilePolarity,Positive*%
%FSLAX46Y46*%
G04 Gerber Fmt 4.6, Leading zero omitted, Abs format (unit mm)*
G04 Created by KiCad (PCBNEW (6.0.1)) date 2022-01-23 22:32:30*
%MOMM*%
%LPD*%
G01*
G04 APERTURE LIST*
G04 Aperture macros list*
%AMRoundRect*
0 Rectangle with rounded corners*
0 $1 Rounding radius*
0 $2 $3 $4 $5 $6 $7 $8 $9 X,Y pos of 4 corners*
0 Add a 4 corners polygon primitive as box body*
4,1,4,$2,$3,$4,$5,$6,$7,$8,$9,$2,$3,0*
0 Add four circle primitives for the rounded corners*
1,1,$1+$1,$2,$3*
1,1,$1+$1,$4,$5*
1,1,$1+$1,$6,$7*
1,1,$1+$1,$8,$9*
0 Add four rect primitives between the rounded corners*
20,1,$1+$1,$2,$3,$4,$5,0*
20,1,$1+$1,$4,$5,$6,$7,0*
20,1,$1+$1,$6,$7,$8,$9,0*
20,1,$1+$1,$8,$9,$2,$3,0*%
G04 Aperture macros list end*
%ADD10C,0.120000*%
%ADD11C,0.100000*%
%ADD12C,0.150000*%
%ADD13RoundRect,0.225000X0.225000X0.250000X-0.225000X0.250000X-0.225000X-0.250000X0.225000X-0.250000X0*%
%ADD14C,1.752600*%
%ADD15RoundRect,0.200000X-0.275000X0.200000X-0.275000X-0.200000X0.275000X-0.200000X0.275000X0.200000X0*%
%ADD16R,5.200000X5.200000*%
%ADD17RoundRect,0.062500X-0.475000X0.062500X-0.475000X-0.062500X0.475000X-0.062500X0.475000X0.062500X0*%
%ADD18RoundRect,0.062500X-0.062500X0.475000X-0.062500X-0.475000X0.062500X-0.475000X0.062500X0.475000X0*%
%ADD19RoundRect,0.200000X0.275000X-0.200000X0.275000X0.200000X-0.275000X0.200000X-0.275000X-0.200000X0*%
%ADD20RoundRect,0.243750X-0.456250X0.243750X-0.456250X-0.243750X0.456250X-0.243750X0.456250X0.243750X0*%
%ADD21RoundRect,0.225000X0.250000X-0.225000X0.250000X0.225000X-0.250000X0.225000X-0.250000X-0.225000X0*%
%ADD22RoundRect,0.150000X-0.150000X0.512500X-0.150000X-0.512500X0.150000X-0.512500X0.150000X0.512500X0*%
%ADD23RoundRect,0.300000X0.400000X0.300000X-0.400000X0.300000X-0.400000X-0.300000X0.400000X-0.300000X0*%
%ADD24RoundRect,0.170000X-0.330000X0.255000X-0.330000X-0.255000X0.330000X-0.255000X0.330000X0.255000X0*%
%ADD25RoundRect,0.225000X-0.250000X0.225000X-0.250000X-0.225000X0.250000X-0.225000X0.250000X0.225000X0*%
%ADD26RoundRect,0.275000X0.275000X-0.275000X0.275000X0.275000X-0.275000X0.275000X-0.275000X-0.275000X0*%
%ADD27O,1.000000X2.200000*%
%ADD28O,1.000000X1.800000*%
%ADD29R,0.600000X1.150000*%
%ADD30R,0.300000X1.150000*%
%ADD31RoundRect,0.170000X0.255000X0.330000X-0.255000X0.330000X-0.255000X-0.330000X0.255000X-0.330000X0*%
%ADD32RoundRect,0.137500X-0.137500X0.212500X-0.137500X-0.212500X0.137500X-0.212500X0.137500X0.212500X0*%
G04 APERTURE END LIST*
D10*
%TO.C,J3*%
X113015857Y-70001666D02*
X113015857Y-70268333D01*
X113434904Y-70268333D02*
X112634904Y-70268333D01*
X112634904Y-69887380D01*
X112634904Y-69239761D02*
X112634904Y-69392142D01*
X112673000Y-69468333D01*
X112711095Y-69506428D01*
X112825380Y-69582619D01*
X112977761Y-69620714D01*
X113282523Y-69620714D01*
X113358714Y-69582619D01*
X113396809Y-69544523D01*
X113434904Y-69468333D01*
X113434904Y-69315952D01*
X113396809Y-69239761D01*
X113358714Y-69201666D01*
X113282523Y-69163571D01*
X113092047Y-69163571D01*
X113015857Y-69201666D01*
X112977761Y-69239761D01*
X112939666Y-69315952D01*
X112939666Y-69468333D01*
X112977761Y-69544523D01*
X113015857Y-69582619D01*
X113092047Y-69620714D01*
X100265095Y-56444523D02*
X101065095Y-56444523D01*
X101065095Y-56635000D01*
X101027000Y-56749285D01*
X100950809Y-56825476D01*
X100874619Y-56863571D01*
X100722238Y-56901666D01*
X100607952Y-56901666D01*
X100455571Y-56863571D01*
X100379380Y-56825476D01*
X100303190Y-56749285D01*
X100265095Y-56635000D01*
X100265095Y-56444523D01*
X100988904Y-57206428D02*
X101027000Y-57244523D01*
X101065095Y-57320714D01*
X101065095Y-57511190D01*
X101027000Y-57587380D01*
X100988904Y-57625476D01*
X100912714Y-57663571D01*
X100836523Y-57663571D01*
X100722238Y-57625476D01*
X100265095Y-57168333D01*
X100265095Y-57663571D01*
X106716666Y-81399913D02*
X106678571Y-81438008D01*
X106564285Y-81476103D01*
X106488095Y-81476103D01*
X106373809Y-81438008D01*
X106297619Y-81361818D01*
X106259523Y-81285627D01*
X106221428Y-81133246D01*
X106221428Y-81018960D01*
X106259523Y-80866579D01*
X106297619Y-80790389D01*
X106373809Y-80714199D01*
X106488095Y-80676103D01*
X106564285Y-80676103D01*
X106678571Y-80714199D01*
X106716666Y-80752294D01*
X106983333Y-80676103D02*
X107516666Y-80676103D01*
X107173809Y-81476103D01*
X113434904Y-60013095D02*
X113053952Y-60279761D01*
X113434904Y-60470238D02*
X112634904Y-60470238D01*
X112634904Y-60165476D01*
X112673000Y-60089285D01*
X112711095Y-60051190D01*
X112787285Y-60013095D01*
X112901571Y-60013095D01*
X112977761Y-60051190D01*
X113015857Y-60089285D01*
X113053952Y-60165476D01*
X113053952Y-60470238D01*
X113396809Y-59708333D02*
X113434904Y-59594047D01*
X113434904Y-59403571D01*
X113396809Y-59327380D01*
X113358714Y-59289285D01*
X113282523Y-59251190D01*
X113206333Y-59251190D01*
X113130142Y-59289285D01*
X113092047Y-59327380D01*
X113053952Y-59403571D01*
X113015857Y-59555952D01*
X112977761Y-59632142D01*
X112939666Y-59670238D01*
X112863476Y-59708333D01*
X112787285Y-59708333D01*
X112711095Y-59670238D01*
X112673000Y-59632142D01*
X112634904Y-59555952D01*
X112634904Y-59365476D01*
X112673000Y-59251190D01*
X112634904Y-59022619D02*
X112634904Y-58565476D01*
X113434904Y-58794047D02*
X112634904Y-58794047D01*
D11*
X113553333Y-52951190D02*
X113720000Y-53451190D01*
X113886666Y-52951190D01*
X114220000Y-53189285D02*
X114291428Y-53213095D01*
X114315238Y-53236904D01*
X114339047Y-53284523D01*
X114339047Y-53355952D01*
X114315238Y-53403571D01*
X114291428Y-53427380D01*
X114243809Y-53451190D01*
X114053333Y-53451190D01*
X114053333Y-52951190D01*
X114220000Y-52951190D01*
X114267619Y-52975000D01*
X114291428Y-52998809D01*
X114315238Y-53046428D01*
X114315238Y-53094047D01*
X114291428Y-53141666D01*
X114267619Y-53165476D01*
X114220000Y-53189285D01*
X114053333Y-53189285D01*
X114553333Y-52951190D02*
X114553333Y-53355952D01*
X114577142Y-53403571D01*
X114600952Y-53427380D01*
X114648571Y-53451190D01*
X114743809Y-53451190D01*
X114791428Y-53427380D01*
X114815238Y-53403571D01*
X114839047Y-53355952D01*
X114839047Y-52951190D01*
X115053333Y-53427380D02*
X115124761Y-53451190D01*
X115243809Y-53451190D01*
X115291428Y-53427380D01*
X115315238Y-53403571D01*
X115339047Y-53355952D01*
X115339047Y-53308333D01*
X115315238Y-53260714D01*
X115291428Y-53236904D01*
X115243809Y-53213095D01*
X115148571Y-53189285D01*
X115100952Y-53165476D01*
X115077142Y-53141666D01*
X115053333Y-53094047D01*
X115053333Y-53046428D01*
X115077142Y-52998809D01*
X115100952Y-52975000D01*
X115148571Y-52951190D01*
X115267619Y-52951190D01*
X115339047Y-52975000D01*
D10*
X103719523Y-81476104D02*
X103719523Y-80676104D01*
X103910000Y-80676104D01*
X104024285Y-80714200D01*
X104100476Y-80790390D01*
X104138571Y-80866580D01*
X104176666Y-81018961D01*
X104176666Y-81133247D01*
X104138571Y-81285628D01*
X104100476Y-81361819D01*
X104024285Y-81438009D01*
X103910000Y-81476104D01*
X103719523Y-81476104D01*
X104900476Y-80676104D02*
X104519523Y-80676104D01*
X104481428Y-81057057D01*
X104519523Y-81018961D01*
X104595714Y-80980866D01*
X104786190Y-80980866D01*
X104862380Y-81018961D01*
X104900476Y-81057057D01*
X104938571Y-81133247D01*
X104938571Y-81323723D01*
X104900476Y-81399914D01*
X104862380Y-81438009D01*
X104786190Y-81476104D01*
X104595714Y-81476104D01*
X104519523Y-81438009D01*
X104481428Y-81399914D01*
X100265095Y-53904523D02*
X101065095Y-53904523D01*
X101065095Y-54095000D01*
X101027000Y-54209285D01*
X100950809Y-54285476D01*
X100874619Y-54323571D01*
X100722238Y-54361666D01*
X100607952Y-54361666D01*
X100455571Y-54323571D01*
X100379380Y-54285476D01*
X100303190Y-54209285D01*
X100265095Y-54095000D01*
X100265095Y-53904523D01*
X101065095Y-54628333D02*
X101065095Y-55123571D01*
X100760333Y-54856904D01*
X100760333Y-54971190D01*
X100722238Y-55047380D01*
X100684142Y-55085476D01*
X100607952Y-55123571D01*
X100417476Y-55123571D01*
X100341285Y-55085476D01*
X100303190Y-55047380D01*
X100265095Y-54971190D01*
X100265095Y-54742619D01*
X100303190Y-54666428D01*
X100341285Y-54628333D01*
X104875238Y-58616104D02*
X104875238Y-57816104D01*
X105065714Y-57816104D01*
X105180000Y-57854200D01*
X105256190Y-57930390D01*
X105294285Y-58006580D01*
X105332380Y-58158961D01*
X105332380Y-58273247D01*
X105294285Y-58425628D01*
X105256190Y-58501819D01*
X105180000Y-58578009D01*
X105065714Y-58616104D01*
X104875238Y-58616104D01*
X105675238Y-58311342D02*
X106284761Y-58311342D01*
X105980000Y-58616104D02*
X105980000Y-58006580D01*
X107415238Y-58616104D02*
X107415238Y-57816104D01*
X107605714Y-57816104D01*
X107720000Y-57854200D01*
X107796190Y-57930390D01*
X107834285Y-58006580D01*
X107872380Y-58158961D01*
X107872380Y-58273247D01*
X107834285Y-58425628D01*
X107796190Y-58501819D01*
X107720000Y-58578009D01*
X107605714Y-58616104D01*
X107415238Y-58616104D01*
X108215238Y-58311342D02*
X108824761Y-58311342D01*
X100265095Y-66604523D02*
X101065095Y-66604523D01*
X101065095Y-66795000D01*
X101027000Y-66909285D01*
X100950809Y-66985476D01*
X100874619Y-67023571D01*
X100722238Y-67061666D01*
X100607952Y-67061666D01*
X100455571Y-67023571D01*
X100379380Y-66985476D01*
X100303190Y-66909285D01*
X100265095Y-66795000D01*
X100265095Y-66604523D01*
X101065095Y-67556904D02*
X101065095Y-67633095D01*
X101027000Y-67709285D01*
X100988904Y-67747380D01*
X100912714Y-67785476D01*
X100760333Y-67823571D01*
X100569857Y-67823571D01*
X100417476Y-67785476D01*
X100341285Y-67747380D01*
X100303190Y-67709285D01*
X100265095Y-67633095D01*
X100265095Y-67556904D01*
X100303190Y-67480714D01*
X100341285Y-67442619D01*
X100417476Y-67404523D01*
X100569857Y-67366428D01*
X100760333Y-67366428D01*
X100912714Y-67404523D01*
X100988904Y-67442619D01*
X101027000Y-67480714D01*
X101065095Y-67556904D01*
X100126797Y-81558990D02*
X100234546Y-81505115D01*
X100288421Y-81505115D01*
X100369233Y-81532053D01*
X100450045Y-81612865D01*
X100476983Y-81693677D01*
X100476983Y-81747552D01*
X100450045Y-81828364D01*
X100234546Y-82043863D01*
X99668861Y-81478178D01*
X99857423Y-81289616D01*
X99938235Y-81262679D01*
X99992110Y-81262679D01*
X100072922Y-81289616D01*
X100126797Y-81343491D01*
X100153734Y-81424303D01*
X100153734Y-81478178D01*
X100126797Y-81558990D01*
X99938235Y-81747552D01*
X100503920Y-80643119D02*
X100234546Y-80912493D01*
X100476983Y-81208804D01*
X100476983Y-81154929D01*
X100503920Y-81074117D01*
X100638607Y-80939430D01*
X100719419Y-80912493D01*
X100773294Y-80912493D01*
X100854106Y-80939430D01*
X100988793Y-81074117D01*
X101015731Y-81154929D01*
X101015731Y-81208804D01*
X100988793Y-81289616D01*
X100854106Y-81424303D01*
X100773294Y-81451241D01*
X100719419Y-81451241D01*
X100265095Y-64064523D02*
X101065095Y-64064523D01*
X101065095Y-64255000D01*
X101027000Y-64369285D01*
X100950809Y-64445476D01*
X100874619Y-64483571D01*
X100722238Y-64521666D01*
X100607952Y-64521666D01*
X100455571Y-64483571D01*
X100379380Y-64445476D01*
X100303190Y-64369285D01*
X100265095Y-64255000D01*
X100265095Y-64064523D01*
X100265095Y-65283571D02*
X100265095Y-64826428D01*
X100265095Y-65055000D02*
X101065095Y-65055000D01*
X100950809Y-64978809D01*
X100874619Y-64902619D01*
X100836523Y-64826428D01*
X112673000Y-57644523D02*
X112634904Y-57720714D01*
X112634904Y-57835000D01*
X112673000Y-57949285D01*
X112749190Y-58025476D01*
X112825380Y-58063571D01*
X112977761Y-58101666D01*
X113092047Y-58101666D01*
X113244428Y-58063571D01*
X113320619Y-58025476D01*
X113396809Y-57949285D01*
X113434904Y-57835000D01*
X113434904Y-57758809D01*
X113396809Y-57644523D01*
X113358714Y-57606428D01*
X113092047Y-57606428D01*
X113092047Y-57758809D01*
X113434904Y-57263571D02*
X112634904Y-57263571D01*
X113434904Y-56806428D01*
X112634904Y-56806428D01*
X113434904Y-56425476D02*
X112634904Y-56425476D01*
X112634904Y-56235000D01*
X112673000Y-56120714D01*
X112749190Y-56044523D01*
X112825380Y-56006428D01*
X112977761Y-55968333D01*
X113092047Y-55968333D01*
X113244428Y-56006428D01*
X113320619Y-56044523D01*
X113396809Y-56120714D01*
X113434904Y-56235000D01*
X113434904Y-56425476D01*
X100341285Y-72141666D02*
X100303190Y-72103571D01*
X100265095Y-71989285D01*
X100265095Y-71913095D01*
X100303190Y-71798809D01*
X100379380Y-71722619D01*
X100455571Y-71684523D01*
X100607952Y-71646428D01*
X100722238Y-71646428D01*
X100874619Y-71684523D01*
X100950809Y-71722619D01*
X101027000Y-71798809D01*
X101065095Y-71913095D01*
X101065095Y-71989285D01*
X101027000Y-72103571D01*
X100988904Y-72141666D01*
X101065095Y-72827380D02*
X101065095Y-72675000D01*
X101027000Y-72598809D01*
X100988904Y-72560714D01*
X100874619Y-72484523D01*
X100722238Y-72446428D01*
X100417476Y-72446428D01*
X100341285Y-72484523D01*
X100303190Y-72522619D01*
X100265095Y-72598809D01*
X100265095Y-72751190D01*
X100303190Y-72827380D01*
X100341285Y-72865476D01*
X100417476Y-72903571D01*
X100607952Y-72903571D01*
X100684142Y-72865476D01*
X100722238Y-72827380D01*
X100760333Y-72751190D01*
X100760333Y-72598809D01*
X100722238Y-72522619D01*
X100684142Y-72484523D01*
X100607952Y-72446428D01*
D11*
X98860952Y-53451190D02*
X98860952Y-52951190D01*
X98980000Y-52951190D01*
X99051428Y-52975000D01*
X99099047Y-53022619D01*
X99122857Y-53070238D01*
X99146666Y-53165476D01*
X99146666Y-53236904D01*
X99122857Y-53332142D01*
X99099047Y-53379761D01*
X99051428Y-53427380D01*
X98980000Y-53451190D01*
X98860952Y-53451190D01*
X99575238Y-52951190D02*
X99480000Y-52951190D01*
X99432380Y-52975000D01*
X99408571Y-52998809D01*
X99360952Y-53070238D01*
X99337142Y-53165476D01*
X99337142Y-53355952D01*
X99360952Y-53403571D01*
X99384761Y-53427380D01*
X99432380Y-53451190D01*
X99527619Y-53451190D01*
X99575238Y-53427380D01*
X99599047Y-53403571D01*
X99622857Y-53355952D01*
X99622857Y-53236904D01*
X99599047Y-53189285D01*
X99575238Y-53165476D01*
X99527619Y-53141666D01*
X99432380Y-53141666D01*
X99384761Y-53165476D01*
X99360952Y-53189285D01*
X99337142Y-53236904D01*
D10*
X100684142Y-76802619D02*
X100684142Y-77069285D01*
X100265095Y-77183571D02*
X100265095Y-76802619D01*
X101065095Y-76802619D01*
X101065095Y-77183571D01*
X101065095Y-77869285D02*
X101065095Y-77716904D01*
X101027000Y-77640714D01*
X100988904Y-77602619D01*
X100874619Y-77526428D01*
X100722238Y-77488333D01*
X100417476Y-77488333D01*
X100341285Y-77526428D01*
X100303190Y-77564523D01*
X100265095Y-77640714D01*
X100265095Y-77793095D01*
X100303190Y-77869285D01*
X100341285Y-77907380D01*
X100417476Y-77945476D01*
X100607952Y-77945476D01*
X100684142Y-77907380D01*
X100722238Y-77869285D01*
X100760333Y-77793095D01*
X100760333Y-77640714D01*
X100722238Y-77564523D01*
X100684142Y-77526428D01*
X100607952Y-77488333D01*
X113015857Y-80218809D02*
X113053952Y-80104523D01*
X113092047Y-80066428D01*
X113168238Y-80028333D01*
X113282523Y-80028333D01*
X113358714Y-80066428D01*
X113396809Y-80104523D01*
X113434904Y-80180714D01*
X113434904Y-80485476D01*
X112634904Y-80485476D01*
X112634904Y-80218809D01*
X112673000Y-80142619D01*
X112711095Y-80104523D01*
X112787285Y-80066428D01*
X112863476Y-80066428D01*
X112939666Y-80104523D01*
X112977761Y-80142619D01*
X113015857Y-80218809D01*
X113015857Y-80485476D01*
X112711095Y-79723571D02*
X112673000Y-79685476D01*
X112634904Y-79609285D01*
X112634904Y-79418809D01*
X112673000Y-79342619D01*
X112711095Y-79304523D01*
X112787285Y-79266428D01*
X112863476Y-79266428D01*
X112977761Y-79304523D01*
X113434904Y-79761666D01*
X113434904Y-79266428D01*
X113015857Y-75138809D02*
X113053952Y-75024523D01*
X113092047Y-74986428D01*
X113168238Y-74948333D01*
X113282523Y-74948333D01*
X113358714Y-74986428D01*
X113396809Y-75024523D01*
X113434904Y-75100714D01*
X113434904Y-75405476D01*
X112634904Y-75405476D01*
X112634904Y-75138809D01*
X112673000Y-75062619D01*
X112711095Y-75024523D01*
X112787285Y-74986428D01*
X112863476Y-74986428D01*
X112939666Y-75024523D01*
X112977761Y-75062619D01*
X113015857Y-75138809D01*
X113015857Y-75405476D01*
X113434904Y-74186428D02*
X113434904Y-74643571D01*
X113434904Y-74415000D02*
X112634904Y-74415000D01*
X112749190Y-74491190D01*
X112825380Y-74567380D01*
X112863476Y-74643571D01*
X111377619Y-81057056D02*
X111644285Y-81057056D01*
X111758571Y-81476103D02*
X111377619Y-81476103D01*
X111377619Y-80676103D01*
X111758571Y-80676103D01*
X112253809Y-80676103D02*
X112330000Y-80676103D01*
X112406190Y-80714199D01*
X112444285Y-80752294D01*
X112482380Y-80828484D01*
X112520476Y-80980865D01*
X112520476Y-81171341D01*
X112482380Y-81323722D01*
X112444285Y-81399913D01*
X112406190Y-81438008D01*
X112330000Y-81476103D01*
X112253809Y-81476103D01*
X112177619Y-81438008D01*
X112139523Y-81399913D01*
X112101428Y-81323722D01*
X112063333Y-81171341D01*
X112063333Y-80980865D01*
X112101428Y-80828484D01*
X112139523Y-80752294D01*
X112177619Y-80714199D01*
X112253809Y-80676103D01*
X112634904Y-63181666D02*
X113434904Y-62915000D01*
X112634904Y-62648333D01*
X113358714Y-61924523D02*
X113396809Y-61962619D01*
X113434904Y-62076904D01*
X113434904Y-62153095D01*
X113396809Y-62267380D01*
X113320619Y-62343571D01*
X113244428Y-62381666D01*
X113092047Y-62419761D01*
X112977761Y-62419761D01*
X112825380Y-62381666D01*
X112749190Y-62343571D01*
X112673000Y-62267380D01*
X112634904Y-62153095D01*
X112634904Y-62076904D01*
X112673000Y-61962619D01*
X112711095Y-61924523D01*
X113358714Y-61124523D02*
X113396809Y-61162619D01*
X113434904Y-61276904D01*
X113434904Y-61353095D01*
X113396809Y-61467380D01*
X113320619Y-61543571D01*
X113244428Y-61581666D01*
X113092047Y-61619761D01*
X112977761Y-61619761D01*
X112825380Y-61581666D01*
X112749190Y-61543571D01*
X112673000Y-61467380D01*
X112634904Y-61353095D01*
X112634904Y-61276904D01*
X112673000Y-61162619D01*
X112711095Y-61124523D01*
X113015857Y-77678809D02*
X113053952Y-77564523D01*
X113092047Y-77526428D01*
X113168238Y-77488333D01*
X113282523Y-77488333D01*
X113358714Y-77526428D01*
X113396809Y-77564523D01*
X113434904Y-77640714D01*
X113434904Y-77945476D01*
X112634904Y-77945476D01*
X112634904Y-77678809D01*
X112673000Y-77602619D01*
X112711095Y-77564523D01*
X112787285Y-77526428D01*
X112863476Y-77526428D01*
X112939666Y-77564523D01*
X112977761Y-77602619D01*
X113015857Y-77678809D01*
X113015857Y-77945476D01*
X112634904Y-77221666D02*
X112634904Y-76726428D01*
X112939666Y-76993095D01*
X112939666Y-76878809D01*
X112977761Y-76802619D01*
X113015857Y-76764523D01*
X113092047Y-76726428D01*
X113282523Y-76726428D01*
X113358714Y-76764523D01*
X113396809Y-76802619D01*
X113434904Y-76878809D01*
X113434904Y-77107380D01*
X113396809Y-77183571D01*
X113358714Y-77221666D01*
X113015857Y-64921666D02*
X113015857Y-65188333D01*
X113434904Y-65188333D02*
X112634904Y-65188333D01*
X112634904Y-64807380D01*
X112901571Y-64159761D02*
X113434904Y-64159761D01*
X112596809Y-64350238D02*
X113168238Y-64540714D01*
X113168238Y-64045476D01*
X100265095Y-69144523D02*
X101065095Y-69144523D01*
X101065095Y-69335000D01*
X101027000Y-69449285D01*
X100950809Y-69525476D01*
X100874619Y-69563571D01*
X100722238Y-69601666D01*
X100607952Y-69601666D01*
X100455571Y-69563571D01*
X100379380Y-69525476D01*
X100303190Y-69449285D01*
X100265095Y-69335000D01*
X100265095Y-69144523D01*
X100798428Y-70287380D02*
X100265095Y-70287380D01*
X101103190Y-70096904D02*
X100531761Y-69906428D01*
X100531761Y-70401666D01*
X113166067Y-80999454D02*
X113219941Y-81107204D01*
X113219941Y-81161079D01*
X113193004Y-81241891D01*
X113112192Y-81322703D01*
X113031380Y-81349641D01*
X112977505Y-81349641D01*
X112896693Y-81322703D01*
X112681193Y-81107204D01*
X113246879Y-80541519D01*
X113435441Y-80730080D01*
X113462378Y-80810893D01*
X113462378Y-80864767D01*
X113435441Y-80945580D01*
X113381566Y-80999454D01*
X113300754Y-81026392D01*
X113246879Y-81026392D01*
X113166067Y-80999454D01*
X112977505Y-80810893D01*
X114055001Y-81349641D02*
X113947251Y-81241891D01*
X113866439Y-81214954D01*
X113812564Y-81214954D01*
X113677877Y-81241891D01*
X113543190Y-81322703D01*
X113327691Y-81538202D01*
X113300754Y-81619015D01*
X113300754Y-81672889D01*
X113327691Y-81753702D01*
X113435441Y-81861451D01*
X113516253Y-81888389D01*
X113570128Y-81888389D01*
X113650940Y-81861451D01*
X113785627Y-81726764D01*
X113812564Y-81645952D01*
X113812564Y-81592077D01*
X113785627Y-81511265D01*
X113677877Y-81403515D01*
X113597065Y-81376578D01*
X113543190Y-81376578D01*
X113462378Y-81403515D01*
X113015857Y-54818809D02*
X113053952Y-54704523D01*
X113092047Y-54666428D01*
X113168238Y-54628333D01*
X113282523Y-54628333D01*
X113358714Y-54666428D01*
X113396809Y-54704523D01*
X113434904Y-54780714D01*
X113434904Y-55085476D01*
X112634904Y-55085476D01*
X112634904Y-54818809D01*
X112673000Y-54742619D01*
X112711095Y-54704523D01*
X112787285Y-54666428D01*
X112863476Y-54666428D01*
X112939666Y-54704523D01*
X112977761Y-54742619D01*
X113015857Y-54818809D01*
X113015857Y-55085476D01*
X112634904Y-54133095D02*
X112634904Y-54056904D01*
X112673000Y-53980714D01*
X112711095Y-53942619D01*
X112787285Y-53904523D01*
X112939666Y-53866428D01*
X113130142Y-53866428D01*
X113282523Y-53904523D01*
X113358714Y-53942619D01*
X113396809Y-53980714D01*
X113434904Y-54056904D01*
X113434904Y-54133095D01*
X113396809Y-54209285D01*
X113358714Y-54247380D01*
X113282523Y-54285476D01*
X113130142Y-54323571D01*
X112939666Y-54323571D01*
X112787285Y-54285476D01*
X112711095Y-54247380D01*
X112673000Y-54209285D01*
X112634904Y-54133095D01*
X113015857Y-72541666D02*
X113015857Y-72808333D01*
X113434904Y-72808333D02*
X112634904Y-72808333D01*
X112634904Y-72427380D01*
X112634904Y-72198809D02*
X112634904Y-71665476D01*
X113434904Y-72008333D01*
X101027000Y-61505476D02*
X101065095Y-61429285D01*
X101065095Y-61315000D01*
X101027000Y-61200714D01*
X100950809Y-61124523D01*
X100874619Y-61086428D01*
X100722238Y-61048333D01*
X100607952Y-61048333D01*
X100455571Y-61086428D01*
X100379380Y-61124523D01*
X100303190Y-61200714D01*
X100265095Y-61315000D01*
X100265095Y-61391190D01*
X100303190Y-61505476D01*
X100341285Y-61543571D01*
X100607952Y-61543571D01*
X100607952Y-61391190D01*
X100265095Y-61886428D02*
X101065095Y-61886428D01*
X100265095Y-62343571D01*
X101065095Y-62343571D01*
X100265095Y-62724523D02*
X101065095Y-62724523D01*
X101065095Y-62915000D01*
X101027000Y-63029285D01*
X100950809Y-63105476D01*
X100874619Y-63143571D01*
X100722238Y-63181666D01*
X100607952Y-63181666D01*
X100455571Y-63143571D01*
X100379380Y-63105476D01*
X100303190Y-63029285D01*
X100265095Y-62915000D01*
X100265095Y-62724523D01*
X113015857Y-67461666D02*
X113015857Y-67728333D01*
X113434904Y-67728333D02*
X112634904Y-67728333D01*
X112634904Y-67347380D01*
X112634904Y-66661666D02*
X112634904Y-67042619D01*
X113015857Y-67080714D01*
X112977761Y-67042619D01*
X112939666Y-66966428D01*
X112939666Y-66775952D01*
X112977761Y-66699761D01*
X113015857Y-66661666D01*
X113092047Y-66623571D01*
X113282523Y-66623571D01*
X113358714Y-66661666D01*
X113396809Y-66699761D01*
X113434904Y-66775952D01*
X113434904Y-66966428D01*
X113396809Y-67042619D01*
X113358714Y-67080714D01*
X100265095Y-74224523D02*
X101065095Y-74224523D01*
X101065095Y-74415000D01*
X101027000Y-74529285D01*
X100950809Y-74605476D01*
X100874619Y-74643571D01*
X100722238Y-74681666D01*
X100607952Y-74681666D01*
X100455571Y-74643571D01*
X100379380Y-74605476D01*
X100303190Y-74529285D01*
X100265095Y-74415000D01*
X100265095Y-74224523D01*
X101065095Y-74948333D02*
X101065095Y-75481666D01*
X100265095Y-75138809D01*
X101446190Y-81057057D02*
X101560476Y-81095152D01*
X101598571Y-81133247D01*
X101636666Y-81209438D01*
X101636666Y-81323723D01*
X101598571Y-81399914D01*
X101560476Y-81438009D01*
X101484285Y-81476104D01*
X101179523Y-81476104D01*
X101179523Y-80676104D01*
X101446190Y-80676104D01*
X101522380Y-80714200D01*
X101560476Y-80752295D01*
X101598571Y-80828485D01*
X101598571Y-80904676D01*
X101560476Y-80980866D01*
X101522380Y-81018961D01*
X101446190Y-81057057D01*
X101179523Y-81057057D01*
X101903333Y-80676104D02*
X102436666Y-80676104D01*
X102093809Y-81476104D01*
X109123333Y-81057056D02*
X108856666Y-81057056D01*
X108856666Y-81476103D02*
X108856666Y-80676103D01*
X109237619Y-80676103D01*
X109961428Y-81476103D02*
X109504285Y-81476103D01*
X109732857Y-81476103D02*
X109732857Y-80676103D01*
X109656666Y-80790389D01*
X109580476Y-80866579D01*
X109504285Y-80904675D01*
X100684142Y-79571190D02*
X100646047Y-79685476D01*
X100607952Y-79723571D01*
X100531761Y-79761666D01*
X100417476Y-79761666D01*
X100341285Y-79723571D01*
X100303190Y-79685476D01*
X100265095Y-79609285D01*
X100265095Y-79304523D01*
X101065095Y-79304523D01*
X101065095Y-79571190D01*
X101027000Y-79647380D01*
X100988904Y-79685476D01*
X100912714Y-79723571D01*
X100836523Y-79723571D01*
X100760333Y-79685476D01*
X100722238Y-79647380D01*
X100684142Y-79571190D01*
X100684142Y-79304523D01*
X100798428Y-80447380D02*
X100265095Y-80447380D01*
X101103190Y-80256904D02*
X100531761Y-80066428D01*
X100531761Y-80561666D01*
X101027000Y-58965476D02*
X101065095Y-58889285D01*
X101065095Y-58775000D01*
X101027000Y-58660714D01*
X100950809Y-58584523D01*
X100874619Y-58546428D01*
X100722238Y-58508333D01*
X100607952Y-58508333D01*
X100455571Y-58546428D01*
X100379380Y-58584523D01*
X100303190Y-58660714D01*
X100265095Y-58775000D01*
X100265095Y-58851190D01*
X100303190Y-58965476D01*
X100341285Y-59003571D01*
X100607952Y-59003571D01*
X100607952Y-58851190D01*
X100265095Y-59346428D02*
X101065095Y-59346428D01*
X100265095Y-59803571D01*
X101065095Y-59803571D01*
X100265095Y-60184523D02*
X101065095Y-60184523D01*
X101065095Y-60375000D01*
X101027000Y-60489285D01*
X100950809Y-60565476D01*
X100874619Y-60603571D01*
X100722238Y-60641666D01*
X100607952Y-60641666D01*
X100455571Y-60603571D01*
X100379380Y-60565476D01*
X100303190Y-60489285D01*
X100265095Y-60375000D01*
X100265095Y-60184523D01*
%TO.C,C9*%
X109830580Y-65145000D02*
X109549420Y-65145000D01*
X109830580Y-66165000D02*
X109549420Y-66165000D01*
%TO.C,R6*%
X109487500Y-79087742D02*
X109487500Y-79562258D01*
X110532500Y-79087742D02*
X110532500Y-79562258D01*
%TO.C,U2*%
X110470000Y-75320000D02*
X110470000Y-76045000D01*
X110470000Y-69550000D02*
X110470000Y-68825000D01*
X103250000Y-68825000D02*
X103975000Y-68825000D01*
X103250000Y-75320000D02*
X103250000Y-76045000D01*
X103250000Y-69550000D02*
X103250000Y-68825000D01*
X110470000Y-76045000D02*
X109745000Y-76045000D01*
X103250000Y-76045000D02*
X103975000Y-76045000D01*
%TO.C,R1*%
X110767500Y-58302258D02*
X110767500Y-57827742D01*
X111812500Y-58302258D02*
X111812500Y-57827742D01*
%TO.C,F1*%
X101720000Y-60796422D02*
X101720000Y-61313578D01*
X103140000Y-60796422D02*
X103140000Y-61313578D01*
%TO.C,C6*%
X108970000Y-79425580D02*
X108970000Y-79144420D01*
X107950000Y-79425580D02*
X107950000Y-79144420D01*
%TO.C,U1*%
X108400000Y-62545000D02*
X108400000Y-60745000D01*
X105280000Y-62545000D02*
X105280000Y-63345000D01*
X108400000Y-62545000D02*
X108400000Y-63345000D01*
X105280000Y-62545000D02*
X105280000Y-61745000D01*
%TO.C,C7*%
X102010000Y-64175580D02*
X102010000Y-63894420D01*
X103030000Y-64175580D02*
X103030000Y-63894420D01*
D12*
%TO.C,FB2*%
X109640000Y-61375000D02*
X109640000Y-63075000D01*
X110940000Y-61375000D02*
X110940000Y-63075000D01*
D10*
%TO.C,C4*%
X111420000Y-75294420D02*
X111420000Y-75575580D01*
X112440000Y-75294420D02*
X112440000Y-75575580D01*
%TO.C,R2*%
X102922500Y-57822742D02*
X102922500Y-58297258D01*
X101877500Y-57822742D02*
X101877500Y-58297258D01*
%TO.C,C1*%
X109460000Y-62124420D02*
X109460000Y-62405580D01*
X108440000Y-62124420D02*
X108440000Y-62405580D01*
%TO.C,C5*%
X101670000Y-79024420D02*
X101670000Y-79305580D01*
X102690000Y-79024420D02*
X102690000Y-79305580D01*
%TO.C,D1*%
X103040000Y-65827500D02*
X105040000Y-65827500D01*
X105040000Y-65827500D02*
X105040000Y-61977500D01*
X103040000Y-65827500D02*
X103040000Y-61977500D01*
%TO.C,C10*%
X104180580Y-66155000D02*
X103899420Y-66155000D01*
X104180580Y-67175000D02*
X103899420Y-67175000D01*
%TO.C,C8*%
X111230000Y-66435580D02*
X111230000Y-66154420D01*
X112250000Y-66435580D02*
X112250000Y-66154420D01*
D12*
%TO.C,FB1*%
X111700000Y-60825000D02*
X110000000Y-60825000D01*
X111700000Y-59525000D02*
X110000000Y-59525000D01*
D10*
%TO.C,R3*%
X102452500Y-66557742D02*
X102452500Y-67032258D01*
X101407500Y-66557742D02*
X101407500Y-67032258D01*
D11*
%TO.C,SW1*%
X111160000Y-77795000D02*
X112160000Y-77795000D01*
X112160000Y-77795000D02*
X112160000Y-79595000D01*
X112160000Y-79595000D02*
X111160000Y-79595000D01*
X111160000Y-79595000D02*
X111160000Y-77795000D01*
D10*
%TO.C,C2*%
X109840580Y-63825000D02*
X109559420Y-63825000D01*
X109840580Y-64845000D02*
X109559420Y-64845000D01*
%TO.C,R4*%
X106682500Y-66132258D02*
X106682500Y-65657742D01*
X105637500Y-66132258D02*
X105637500Y-65657742D01*
%TO.C,C3*%
X111200580Y-67965000D02*
X110919420Y-67965000D01*
X111200580Y-68985000D02*
X110919420Y-68985000D01*
%TO.C,R5*%
X108072500Y-66132258D02*
X108072500Y-65657742D01*
X107027500Y-66132258D02*
X107027500Y-65657742D01*
%TD*%
%LPC*%
D13*
%TO.C,C9*%
X108915000Y-65655000D03*
X110465000Y-65655000D03*
%TD*%
D14*
%TO.C,J3*%
X105580000Y-59575000D03*
X108120000Y-59575000D03*
X114470000Y-51955000D03*
X114470000Y-54495000D03*
X114470000Y-57035000D03*
X114470000Y-59575000D03*
X114470000Y-62115000D03*
X114470000Y-64655000D03*
X114470000Y-67195000D03*
X114470000Y-69735000D03*
X114470000Y-72275000D03*
X114470000Y-74815000D03*
X114470000Y-77355000D03*
X114470000Y-79895000D03*
X114470000Y-82435000D03*
X111930000Y-82435000D03*
X109390000Y-82435000D03*
X106850000Y-82435000D03*
X104310000Y-82435000D03*
X101770000Y-82435000D03*
X99230000Y-82435000D03*
X99230000Y-79895000D03*
X99230000Y-77355000D03*
X99230000Y-74815000D03*
X99230000Y-72275000D03*
X99230000Y-69735000D03*
X99230000Y-67195000D03*
X99230000Y-64655000D03*
X99230000Y-62115000D03*
X99230000Y-59575000D03*
X99230000Y-57035000D03*
X99230000Y-54495000D03*
X99230000Y-51955000D03*
%TD*%
D15*
%TO.C,R6*%
X110010000Y-80150000D03*
X110010000Y-78500000D03*
%TD*%
D16*
%TO.C,U2*%
X106860000Y-72435000D03*
D17*
X110197500Y-69935000D03*
X110197500Y-70435000D03*
X110197500Y-70935000D03*
X110197500Y-71435000D03*
X110197500Y-71935000D03*
X110197500Y-72435000D03*
X110197500Y-72935000D03*
X110197500Y-73435000D03*
X110197500Y-73935000D03*
X110197500Y-74435000D03*
X110197500Y-74935000D03*
D18*
X109360000Y-75772500D03*
X108860000Y-75772500D03*
X108360000Y-75772500D03*
X107860000Y-75772500D03*
X107360000Y-75772500D03*
X106860000Y-75772500D03*
X106360000Y-75772500D03*
X105860000Y-75772500D03*
X105360000Y-75772500D03*
X104860000Y-75772500D03*
X104360000Y-75772500D03*
D17*
X103522500Y-74935000D03*
X103522500Y-74435000D03*
X103522500Y-73935000D03*
X103522500Y-73435000D03*
X103522500Y-72935000D03*
X103522500Y-72435000D03*
X103522500Y-71935000D03*
X103522500Y-71435000D03*
X103522500Y-70935000D03*
X103522500Y-70435000D03*
X103522500Y-69935000D03*
D18*
X104360000Y-69097500D03*
X104860000Y-69097500D03*
X105360000Y-69097500D03*
X105860000Y-69097500D03*
X106360000Y-69097500D03*
X106860000Y-69097500D03*
X107360000Y-69097500D03*
X107860000Y-69097500D03*
X108360000Y-69097500D03*
X108860000Y-69097500D03*
X109360000Y-69097500D03*
%TD*%
D19*
%TO.C,R1*%
X111290000Y-57240000D03*
X111290000Y-58890000D03*
%TD*%
D20*
%TO.C,F1*%
X102430000Y-61992500D03*
X102430000Y-60117500D03*
%TD*%
D21*
%TO.C,C6*%
X108460000Y-78510000D03*
X108460000Y-80060000D03*
%TD*%
D22*
%TO.C,U1*%
X107790000Y-63682500D03*
X106840000Y-63682500D03*
X105890000Y-63682500D03*
X105890000Y-61407500D03*
X106840000Y-61407500D03*
X107790000Y-61407500D03*
%TD*%
D21*
%TO.C,C7*%
X102520000Y-63260000D03*
X102520000Y-64810000D03*
%TD*%
D23*
%TO.C,Y1*%
X106200000Y-80085000D03*
X104000000Y-80085000D03*
X104000000Y-78385000D03*
X106200000Y-78385000D03*
%TD*%
D24*
%TO.C,FB2*%
X110290000Y-63075000D03*
X110290000Y-61475000D03*
%TD*%
D25*
%TO.C,C4*%
X111930000Y-76210000D03*
X111930000Y-74660000D03*
%TD*%
D15*
%TO.C,R2*%
X102400000Y-58885000D03*
X102400000Y-57235000D03*
%TD*%
D25*
%TO.C,C1*%
X108950000Y-63040000D03*
X108950000Y-61490000D03*
%TD*%
%TO.C,C5*%
X102180000Y-79940000D03*
X102180000Y-78390000D03*
%TD*%
D26*
%TO.C,D1*%
X104040000Y-62227500D03*
X104040000Y-65027500D03*
%TD*%
D27*
%TO.C,J1*%
X112470000Y-51935000D03*
X101230000Y-51935000D03*
D28*
X101230000Y-55935000D03*
X112470000Y-55935000D03*
D29*
X110050000Y-57135000D03*
X109250000Y-57135000D03*
D30*
X108600000Y-57135000D03*
X107600000Y-57135000D03*
X106100000Y-57135000D03*
X105100000Y-57135000D03*
D29*
X104450000Y-57135000D03*
X103650000Y-57135000D03*
X103650000Y-57135000D03*
X104450000Y-57135000D03*
D30*
X105600000Y-57135000D03*
X106600000Y-57135000D03*
X107100000Y-57135000D03*
X108100000Y-57135000D03*
D29*
X109250000Y-57135000D03*
X110050000Y-57135000D03*
%TD*%
D13*
%TO.C,C10*%
X103265000Y-66665000D03*
X104815000Y-66665000D03*
%TD*%
D21*
%TO.C,C8*%
X111740000Y-65520000D03*
X111740000Y-67070000D03*
%TD*%
D31*
%TO.C,FB1*%
X110000000Y-60175000D03*
X111600000Y-60175000D03*
%TD*%
D15*
%TO.C,R3*%
X101930000Y-67620000D03*
X101930000Y-65970000D03*
%TD*%
D32*
%TO.C,SW1*%
X111085000Y-80045000D03*
X111085000Y-77345000D03*
X112235000Y-77345000D03*
X112235000Y-80045000D03*
%TD*%
D13*
%TO.C,C2*%
X108925000Y-64335000D03*
X110475000Y-64335000D03*
%TD*%
D19*
%TO.C,R4*%
X106160000Y-65070000D03*
X106160000Y-66720000D03*
%TD*%
D13*
%TO.C,C3*%
X110285000Y-68475000D03*
X111835000Y-68475000D03*
%TD*%
D19*
%TO.C,R5*%
X107550000Y-65070000D03*
X107550000Y-66720000D03*
%TD*%
M02*
