%TF.GenerationSoftware,KiCad,Pcbnew,(6.0.1)*%
%TF.CreationDate,2022-01-23T22:32:30+01:00*%
%TF.ProjectId,pluto,706c7574-6f2e-46b6-9963-61645f706362,1.0*%
%TF.SameCoordinates,Original*%
%TF.FileFunction,Legend,Bot*%
%TF.FilePolarity,Positive*%
%FSLAX46Y46*%
G04 Gerber Fmt 4.6, Leading zero omitted, Abs format (unit mm)*
G04 Created by KiCad (PCBNEW (6.0.1)) date 2022-01-23 22:32:30*
%MOMM*%
%LPD*%
G01*
G04 APERTURE LIST*
%ADD10C,0.120000*%
%ADD11C,0.100000*%
%ADD12C,1.752600*%
%ADD13O,1.000000X2.200000*%
%ADD14O,1.000000X1.800000*%
G04 APERTURE END LIST*
D10*
%TO.C,J3*%
X100265095Y-70325476D02*
X101065095Y-70325476D01*
X101065095Y-70135000D01*
X101027000Y-70020714D01*
X100950809Y-69944523D01*
X100874619Y-69906428D01*
X100722238Y-69868333D01*
X100607952Y-69868333D01*
X100455571Y-69906428D01*
X100379380Y-69944523D01*
X100303190Y-70020714D01*
X100265095Y-70135000D01*
X100265095Y-70325476D01*
X100798428Y-69182619D02*
X100265095Y-69182619D01*
X101103190Y-69373095D02*
X100531761Y-69563571D01*
X100531761Y-69068333D01*
X101027000Y-60184523D02*
X101065095Y-60260714D01*
X101065095Y-60375000D01*
X101027000Y-60489285D01*
X100950809Y-60565476D01*
X100874619Y-60603571D01*
X100722238Y-60641666D01*
X100607952Y-60641666D01*
X100455571Y-60603571D01*
X100379380Y-60565476D01*
X100303190Y-60489285D01*
X100265095Y-60375000D01*
X100265095Y-60298809D01*
X100303190Y-60184523D01*
X100341285Y-60146428D01*
X100607952Y-60146428D01*
X100607952Y-60298809D01*
X100265095Y-59803571D02*
X101065095Y-59803571D01*
X100265095Y-59346428D01*
X101065095Y-59346428D01*
X100265095Y-58965476D02*
X101065095Y-58965476D01*
X101065095Y-58775000D01*
X101027000Y-58660714D01*
X100950809Y-58584523D01*
X100874619Y-58546428D01*
X100722238Y-58508333D01*
X100607952Y-58508333D01*
X100455571Y-58546428D01*
X100379380Y-58584523D01*
X100303190Y-58660714D01*
X100265095Y-58775000D01*
X100265095Y-58965476D01*
X113015857Y-69417533D02*
X113015857Y-69150866D01*
X113434904Y-69150866D02*
X112634904Y-69150866D01*
X112634904Y-69531819D01*
X112634904Y-70179438D02*
X112634904Y-70027057D01*
X112673000Y-69950866D01*
X112711095Y-69912771D01*
X112825380Y-69836580D01*
X112977761Y-69798485D01*
X113282523Y-69798485D01*
X113358714Y-69836580D01*
X113396809Y-69874676D01*
X113434904Y-69950866D01*
X113434904Y-70103247D01*
X113396809Y-70179438D01*
X113358714Y-70217533D01*
X113282523Y-70255628D01*
X113092047Y-70255628D01*
X113015857Y-70217533D01*
X112977761Y-70179438D01*
X112939666Y-70103247D01*
X112939666Y-69950866D01*
X112977761Y-69874676D01*
X113015857Y-69836580D01*
X113092047Y-69798485D01*
X101027000Y-62724523D02*
X101065095Y-62800714D01*
X101065095Y-62915000D01*
X101027000Y-63029285D01*
X100950809Y-63105476D01*
X100874619Y-63143571D01*
X100722238Y-63181666D01*
X100607952Y-63181666D01*
X100455571Y-63143571D01*
X100379380Y-63105476D01*
X100303190Y-63029285D01*
X100265095Y-62915000D01*
X100265095Y-62838809D01*
X100303190Y-62724523D01*
X100341285Y-62686428D01*
X100607952Y-62686428D01*
X100607952Y-62838809D01*
X100265095Y-62343571D02*
X101065095Y-62343571D01*
X100265095Y-61886428D01*
X101065095Y-61886428D01*
X100265095Y-61505476D02*
X101065095Y-61505476D01*
X101065095Y-61315000D01*
X101027000Y-61200714D01*
X100950809Y-61124523D01*
X100874619Y-61086428D01*
X100722238Y-61048333D01*
X100607952Y-61048333D01*
X100455571Y-61086428D01*
X100379380Y-61124523D01*
X100303190Y-61200714D01*
X100265095Y-61315000D01*
X100265095Y-61505476D01*
X102093809Y-81057057D02*
X101979523Y-81095152D01*
X101941428Y-81133247D01*
X101903333Y-81209438D01*
X101903333Y-81323723D01*
X101941428Y-81399914D01*
X101979523Y-81438009D01*
X102055714Y-81476104D01*
X102360476Y-81476104D01*
X102360476Y-80676104D01*
X102093809Y-80676104D01*
X102017619Y-80714200D01*
X101979523Y-80752295D01*
X101941428Y-80828485D01*
X101941428Y-80904676D01*
X101979523Y-80980866D01*
X102017619Y-81018961D01*
X102093809Y-81057057D01*
X102360476Y-81057057D01*
X101636666Y-80676104D02*
X101103333Y-80676104D01*
X101446190Y-81476104D01*
X108824761Y-58616104D02*
X108824761Y-57816104D01*
X108634285Y-57816104D01*
X108520000Y-57854200D01*
X108443809Y-57930390D01*
X108405714Y-58006580D01*
X108367619Y-58158961D01*
X108367619Y-58273247D01*
X108405714Y-58425628D01*
X108443809Y-58501819D01*
X108520000Y-58578009D01*
X108634285Y-58616104D01*
X108824761Y-58616104D01*
X108024761Y-58311342D02*
X107415238Y-58311342D01*
X104900476Y-81476104D02*
X104900476Y-80676104D01*
X104710000Y-80676104D01*
X104595714Y-80714200D01*
X104519523Y-80790390D01*
X104481428Y-80866580D01*
X104443333Y-81018961D01*
X104443333Y-81133247D01*
X104481428Y-81285628D01*
X104519523Y-81361819D01*
X104595714Y-81438009D01*
X104710000Y-81476104D01*
X104900476Y-81476104D01*
X103719523Y-80676104D02*
X104100476Y-80676104D01*
X104138571Y-81057057D01*
X104100476Y-81018961D01*
X104024285Y-80980866D01*
X103833809Y-80980866D01*
X103757619Y-81018961D01*
X103719523Y-81057057D01*
X103681428Y-81133247D01*
X103681428Y-81323723D01*
X103719523Y-81399914D01*
X103757619Y-81438009D01*
X103833809Y-81476104D01*
X104024285Y-81476104D01*
X104100476Y-81438009D01*
X104138571Y-81399914D01*
D11*
X115386666Y-52951190D02*
X115220000Y-53451190D01*
X115053333Y-52951190D01*
X114720000Y-53189285D02*
X114648571Y-53213095D01*
X114624761Y-53236904D01*
X114600952Y-53284523D01*
X114600952Y-53355952D01*
X114624761Y-53403571D01*
X114648571Y-53427380D01*
X114696190Y-53451190D01*
X114886666Y-53451190D01*
X114886666Y-52951190D01*
X114720000Y-52951190D01*
X114672380Y-52975000D01*
X114648571Y-52998809D01*
X114624761Y-53046428D01*
X114624761Y-53094047D01*
X114648571Y-53141666D01*
X114672380Y-53165476D01*
X114720000Y-53189285D01*
X114886666Y-53189285D01*
X114386666Y-52951190D02*
X114386666Y-53355952D01*
X114362857Y-53403571D01*
X114339047Y-53427380D01*
X114291428Y-53451190D01*
X114196190Y-53451190D01*
X114148571Y-53427380D01*
X114124761Y-53403571D01*
X114100952Y-53355952D01*
X114100952Y-52951190D01*
X113886666Y-53427380D02*
X113815238Y-53451190D01*
X113696190Y-53451190D01*
X113648571Y-53427380D01*
X113624761Y-53403571D01*
X113600952Y-53355952D01*
X113600952Y-53308333D01*
X113624761Y-53260714D01*
X113648571Y-53236904D01*
X113696190Y-53213095D01*
X113791428Y-53189285D01*
X113839047Y-53165476D01*
X113862857Y-53141666D01*
X113886666Y-53094047D01*
X113886666Y-53046428D01*
X113862857Y-52998809D01*
X113839047Y-52975000D01*
X113791428Y-52951190D01*
X113672380Y-52951190D01*
X113600952Y-52975000D01*
D10*
X112482380Y-81057057D02*
X112215714Y-81057057D01*
X112101428Y-81476104D02*
X112482380Y-81476104D01*
X112482380Y-80676104D01*
X112101428Y-80676104D01*
X111606190Y-80676104D02*
X111530000Y-80676104D01*
X111453809Y-80714200D01*
X111415714Y-80752295D01*
X111377619Y-80828485D01*
X111339523Y-80980866D01*
X111339523Y-81171342D01*
X111377619Y-81323723D01*
X111415714Y-81399914D01*
X111453809Y-81438009D01*
X111530000Y-81476104D01*
X111606190Y-81476104D01*
X111682380Y-81438009D01*
X111720476Y-81399914D01*
X111758571Y-81323723D01*
X111796666Y-81171342D01*
X111796666Y-80980866D01*
X111758571Y-80828485D01*
X111720476Y-80752295D01*
X111682380Y-80714200D01*
X111606190Y-80676104D01*
X100684142Y-77907380D02*
X100684142Y-77640714D01*
X100265095Y-77526428D02*
X100265095Y-77907380D01*
X101065095Y-77907380D01*
X101065095Y-77526428D01*
X101065095Y-76840714D02*
X101065095Y-76993095D01*
X101027000Y-77069285D01*
X100988904Y-77107380D01*
X100874619Y-77183571D01*
X100722238Y-77221666D01*
X100417476Y-77221666D01*
X100341285Y-77183571D01*
X100303190Y-77145476D01*
X100265095Y-77069285D01*
X100265095Y-76916904D01*
X100303190Y-76840714D01*
X100341285Y-76802619D01*
X100417476Y-76764523D01*
X100607952Y-76764523D01*
X100684142Y-76802619D01*
X100722238Y-76840714D01*
X100760333Y-76916904D01*
X100760333Y-77069285D01*
X100722238Y-77145476D01*
X100684142Y-77183571D01*
X100607952Y-77221666D01*
X113434904Y-59086104D02*
X113053952Y-58819438D01*
X113434904Y-58628961D02*
X112634904Y-58628961D01*
X112634904Y-58933723D01*
X112673000Y-59009914D01*
X112711095Y-59048009D01*
X112787285Y-59086104D01*
X112901571Y-59086104D01*
X112977761Y-59048009D01*
X113015857Y-59009914D01*
X113053952Y-58933723D01*
X113053952Y-58628961D01*
X113396809Y-59390866D02*
X113434904Y-59505152D01*
X113434904Y-59695628D01*
X113396809Y-59771819D01*
X113358714Y-59809914D01*
X113282523Y-59848009D01*
X113206333Y-59848009D01*
X113130142Y-59809914D01*
X113092047Y-59771819D01*
X113053952Y-59695628D01*
X113015857Y-59543247D01*
X112977761Y-59467057D01*
X112939666Y-59428961D01*
X112863476Y-59390866D01*
X112787285Y-59390866D01*
X112711095Y-59428961D01*
X112673000Y-59467057D01*
X112634904Y-59543247D01*
X112634904Y-59733723D01*
X112673000Y-59848009D01*
X112634904Y-60076580D02*
X112634904Y-60533723D01*
X113434904Y-60305152D02*
X112634904Y-60305152D01*
X113015857Y-74440390D02*
X113053952Y-74554676D01*
X113092047Y-74592771D01*
X113168238Y-74630866D01*
X113282523Y-74630866D01*
X113358714Y-74592771D01*
X113396809Y-74554676D01*
X113434904Y-74478485D01*
X113434904Y-74173723D01*
X112634904Y-74173723D01*
X112634904Y-74440390D01*
X112673000Y-74516580D01*
X112711095Y-74554676D01*
X112787285Y-74592771D01*
X112863476Y-74592771D01*
X112939666Y-74554676D01*
X112977761Y-74516580D01*
X113015857Y-74440390D01*
X113015857Y-74173723D01*
X113434904Y-75392771D02*
X113434904Y-74935628D01*
X113434904Y-75164200D02*
X112634904Y-75164200D01*
X112749190Y-75088009D01*
X112825380Y-75011819D01*
X112863476Y-74935628D01*
X100265095Y-67785476D02*
X101065095Y-67785476D01*
X101065095Y-67595000D01*
X101027000Y-67480714D01*
X100950809Y-67404523D01*
X100874619Y-67366428D01*
X100722238Y-67328333D01*
X100607952Y-67328333D01*
X100455571Y-67366428D01*
X100379380Y-67404523D01*
X100303190Y-67480714D01*
X100265095Y-67595000D01*
X100265095Y-67785476D01*
X101065095Y-66833095D02*
X101065095Y-66756904D01*
X101027000Y-66680714D01*
X100988904Y-66642619D01*
X100912714Y-66604523D01*
X100760333Y-66566428D01*
X100569857Y-66566428D01*
X100417476Y-66604523D01*
X100341285Y-66642619D01*
X100303190Y-66680714D01*
X100265095Y-66756904D01*
X100265095Y-66833095D01*
X100303190Y-66909285D01*
X100341285Y-66947380D01*
X100417476Y-66985476D01*
X100569857Y-67023571D01*
X100760333Y-67023571D01*
X100912714Y-66985476D01*
X100988904Y-66947380D01*
X101027000Y-66909285D01*
X101065095Y-66833095D01*
X113015857Y-76980390D02*
X113053952Y-77094676D01*
X113092047Y-77132771D01*
X113168238Y-77170866D01*
X113282523Y-77170866D01*
X113358714Y-77132771D01*
X113396809Y-77094676D01*
X113434904Y-77018485D01*
X113434904Y-76713723D01*
X112634904Y-76713723D01*
X112634904Y-76980390D01*
X112673000Y-77056580D01*
X112711095Y-77094676D01*
X112787285Y-77132771D01*
X112863476Y-77132771D01*
X112939666Y-77094676D01*
X112977761Y-77056580D01*
X113015857Y-76980390D01*
X113015857Y-76713723D01*
X112634904Y-77437533D02*
X112634904Y-77932771D01*
X112939666Y-77666104D01*
X112939666Y-77780390D01*
X112977761Y-77856580D01*
X113015857Y-77894676D01*
X113092047Y-77932771D01*
X113282523Y-77932771D01*
X113358714Y-77894676D01*
X113396809Y-77856580D01*
X113434904Y-77780390D01*
X113434904Y-77551819D01*
X113396809Y-77475628D01*
X113358714Y-77437533D01*
X113624002Y-81508190D02*
X113516253Y-81454315D01*
X113462378Y-81454315D01*
X113381566Y-81481253D01*
X113300754Y-81562065D01*
X113273816Y-81642877D01*
X113273816Y-81696752D01*
X113300754Y-81777564D01*
X113516253Y-81993063D01*
X114081938Y-81427378D01*
X113893376Y-81238816D01*
X113812564Y-81211879D01*
X113758689Y-81211879D01*
X113677877Y-81238816D01*
X113624002Y-81292691D01*
X113597065Y-81373503D01*
X113597065Y-81427378D01*
X113624002Y-81508190D01*
X113812564Y-81696752D01*
X113273816Y-80619256D02*
X113381566Y-80727006D01*
X113408503Y-80807818D01*
X113408503Y-80861693D01*
X113381566Y-80996380D01*
X113300754Y-81131067D01*
X113085254Y-81346566D01*
X113004442Y-81373503D01*
X112950567Y-81373503D01*
X112869755Y-81346566D01*
X112762006Y-81238816D01*
X112735068Y-81158004D01*
X112735068Y-81104129D01*
X112762006Y-81023317D01*
X112896693Y-80888630D01*
X112977505Y-80861693D01*
X113031380Y-80861693D01*
X113112192Y-80888630D01*
X113219941Y-80996380D01*
X113246879Y-81077192D01*
X113246879Y-81131067D01*
X113219941Y-81211879D01*
X100584732Y-81101054D02*
X100530858Y-81208804D01*
X100530858Y-81262679D01*
X100557795Y-81343491D01*
X100638607Y-81424303D01*
X100719419Y-81451241D01*
X100773294Y-81451241D01*
X100854106Y-81424303D01*
X101069606Y-81208804D01*
X100503920Y-80643119D01*
X100315358Y-80831680D01*
X100288421Y-80912493D01*
X100288421Y-80966367D01*
X100315358Y-81047180D01*
X100369233Y-81101054D01*
X100450045Y-81127992D01*
X100503920Y-81127992D01*
X100584732Y-81101054D01*
X100773294Y-80912493D01*
X99668861Y-81478178D02*
X99938235Y-81208804D01*
X100234546Y-81451241D01*
X100180671Y-81451241D01*
X100099859Y-81478178D01*
X99965172Y-81612865D01*
X99938235Y-81693677D01*
X99938235Y-81747552D01*
X99965172Y-81828364D01*
X100099859Y-81963051D01*
X100180671Y-81989989D01*
X100234546Y-81989989D01*
X100315358Y-81963051D01*
X100450045Y-81828364D01*
X100476983Y-81747552D01*
X100476983Y-81693677D01*
X109656666Y-81057057D02*
X109923333Y-81057057D01*
X109923333Y-81476104D02*
X109923333Y-80676104D01*
X109542380Y-80676104D01*
X108818571Y-81476104D02*
X109275714Y-81476104D01*
X109047142Y-81476104D02*
X109047142Y-80676104D01*
X109123333Y-80790390D01*
X109199523Y-80866580D01*
X109275714Y-80904676D01*
X106284761Y-58616104D02*
X106284761Y-57816104D01*
X106094285Y-57816104D01*
X105980000Y-57854200D01*
X105903809Y-57930390D01*
X105865714Y-58006580D01*
X105827619Y-58158961D01*
X105827619Y-58273247D01*
X105865714Y-58425628D01*
X105903809Y-58501819D01*
X105980000Y-58578009D01*
X106094285Y-58616104D01*
X106284761Y-58616104D01*
X105484761Y-58311342D02*
X104875238Y-58311342D01*
X105180000Y-58616104D02*
X105180000Y-58006580D01*
X113015857Y-71957533D02*
X113015857Y-71690866D01*
X113434904Y-71690866D02*
X112634904Y-71690866D01*
X112634904Y-72071819D01*
X112634904Y-72300390D02*
X112634904Y-72833723D01*
X113434904Y-72490866D01*
X100265095Y-57625476D02*
X101065095Y-57625476D01*
X101065095Y-57435000D01*
X101027000Y-57320714D01*
X100950809Y-57244523D01*
X100874619Y-57206428D01*
X100722238Y-57168333D01*
X100607952Y-57168333D01*
X100455571Y-57206428D01*
X100379380Y-57244523D01*
X100303190Y-57320714D01*
X100265095Y-57435000D01*
X100265095Y-57625476D01*
X100988904Y-56863571D02*
X101027000Y-56825476D01*
X101065095Y-56749285D01*
X101065095Y-56558809D01*
X101027000Y-56482619D01*
X100988904Y-56444523D01*
X100912714Y-56406428D01*
X100836523Y-56406428D01*
X100722238Y-56444523D01*
X100265095Y-56901666D01*
X100265095Y-56406428D01*
X113015857Y-66877533D02*
X113015857Y-66610866D01*
X113434904Y-66610866D02*
X112634904Y-66610866D01*
X112634904Y-66991819D01*
X112634904Y-67677533D02*
X112634904Y-67296580D01*
X113015857Y-67258485D01*
X112977761Y-67296580D01*
X112939666Y-67372771D01*
X112939666Y-67563247D01*
X112977761Y-67639438D01*
X113015857Y-67677533D01*
X113092047Y-67715628D01*
X113282523Y-67715628D01*
X113358714Y-67677533D01*
X113396809Y-67639438D01*
X113434904Y-67563247D01*
X113434904Y-67372771D01*
X113396809Y-67296580D01*
X113358714Y-67258485D01*
X112673000Y-56374676D02*
X112634904Y-56298485D01*
X112634904Y-56184200D01*
X112673000Y-56069914D01*
X112749190Y-55993723D01*
X112825380Y-55955628D01*
X112977761Y-55917533D01*
X113092047Y-55917533D01*
X113244428Y-55955628D01*
X113320619Y-55993723D01*
X113396809Y-56069914D01*
X113434904Y-56184200D01*
X113434904Y-56260390D01*
X113396809Y-56374676D01*
X113358714Y-56412771D01*
X113092047Y-56412771D01*
X113092047Y-56260390D01*
X113434904Y-56755628D02*
X112634904Y-56755628D01*
X113434904Y-57212771D01*
X112634904Y-57212771D01*
X113434904Y-57593723D02*
X112634904Y-57593723D01*
X112634904Y-57784200D01*
X112673000Y-57898485D01*
X112749190Y-57974676D01*
X112825380Y-58012771D01*
X112977761Y-58050866D01*
X113092047Y-58050866D01*
X113244428Y-58012771D01*
X113320619Y-57974676D01*
X113396809Y-57898485D01*
X113434904Y-57784200D01*
X113434904Y-57593723D01*
X112634904Y-60997533D02*
X113434904Y-61264200D01*
X112634904Y-61530866D01*
X113358714Y-62254676D02*
X113396809Y-62216580D01*
X113434904Y-62102295D01*
X113434904Y-62026104D01*
X113396809Y-61911819D01*
X113320619Y-61835628D01*
X113244428Y-61797533D01*
X113092047Y-61759438D01*
X112977761Y-61759438D01*
X112825380Y-61797533D01*
X112749190Y-61835628D01*
X112673000Y-61911819D01*
X112634904Y-62026104D01*
X112634904Y-62102295D01*
X112673000Y-62216580D01*
X112711095Y-62254676D01*
X113358714Y-63054676D02*
X113396809Y-63016580D01*
X113434904Y-62902295D01*
X113434904Y-62826104D01*
X113396809Y-62711819D01*
X113320619Y-62635628D01*
X113244428Y-62597533D01*
X113092047Y-62559438D01*
X112977761Y-62559438D01*
X112825380Y-62597533D01*
X112749190Y-62635628D01*
X112673000Y-62711819D01*
X112634904Y-62826104D01*
X112634904Y-62902295D01*
X112673000Y-63016580D01*
X112711095Y-63054676D01*
X100265095Y-65245476D02*
X101065095Y-65245476D01*
X101065095Y-65055000D01*
X101027000Y-64940714D01*
X100950809Y-64864523D01*
X100874619Y-64826428D01*
X100722238Y-64788333D01*
X100607952Y-64788333D01*
X100455571Y-64826428D01*
X100379380Y-64864523D01*
X100303190Y-64940714D01*
X100265095Y-65055000D01*
X100265095Y-65245476D01*
X100265095Y-64026428D02*
X100265095Y-64483571D01*
X100265095Y-64255000D02*
X101065095Y-64255000D01*
X100950809Y-64331190D01*
X100874619Y-64407380D01*
X100836523Y-64483571D01*
X100265095Y-55085476D02*
X101065095Y-55085476D01*
X101065095Y-54895000D01*
X101027000Y-54780714D01*
X100950809Y-54704523D01*
X100874619Y-54666428D01*
X100722238Y-54628333D01*
X100607952Y-54628333D01*
X100455571Y-54666428D01*
X100379380Y-54704523D01*
X100303190Y-54780714D01*
X100265095Y-54895000D01*
X100265095Y-55085476D01*
X101065095Y-54361666D02*
X101065095Y-53866428D01*
X100760333Y-54133095D01*
X100760333Y-54018809D01*
X100722238Y-53942619D01*
X100684142Y-53904523D01*
X100607952Y-53866428D01*
X100417476Y-53866428D01*
X100341285Y-53904523D01*
X100303190Y-53942619D01*
X100265095Y-54018809D01*
X100265095Y-54247380D01*
X100303190Y-54323571D01*
X100341285Y-54361666D01*
X113015857Y-64337533D02*
X113015857Y-64070866D01*
X113434904Y-64070866D02*
X112634904Y-64070866D01*
X112634904Y-64451819D01*
X112901571Y-65099438D02*
X113434904Y-65099438D01*
X112596809Y-64908961D02*
X113168238Y-64718485D01*
X113168238Y-65213723D01*
D11*
X99599047Y-53451190D02*
X99599047Y-52951190D01*
X99480000Y-52951190D01*
X99408571Y-52975000D01*
X99360952Y-53022619D01*
X99337142Y-53070238D01*
X99313333Y-53165476D01*
X99313333Y-53236904D01*
X99337142Y-53332142D01*
X99360952Y-53379761D01*
X99408571Y-53427380D01*
X99480000Y-53451190D01*
X99599047Y-53451190D01*
X98884761Y-52951190D02*
X98980000Y-52951190D01*
X99027619Y-52975000D01*
X99051428Y-52998809D01*
X99099047Y-53070238D01*
X99122857Y-53165476D01*
X99122857Y-53355952D01*
X99099047Y-53403571D01*
X99075238Y-53427380D01*
X99027619Y-53451190D01*
X98932380Y-53451190D01*
X98884761Y-53427380D01*
X98860952Y-53403571D01*
X98837142Y-53355952D01*
X98837142Y-53236904D01*
X98860952Y-53189285D01*
X98884761Y-53165476D01*
X98932380Y-53141666D01*
X99027619Y-53141666D01*
X99075238Y-53165476D01*
X99099047Y-53189285D01*
X99122857Y-53236904D01*
D10*
X113015857Y-54120390D02*
X113053952Y-54234676D01*
X113092047Y-54272771D01*
X113168238Y-54310866D01*
X113282523Y-54310866D01*
X113358714Y-54272771D01*
X113396809Y-54234676D01*
X113434904Y-54158485D01*
X113434904Y-53853723D01*
X112634904Y-53853723D01*
X112634904Y-54120390D01*
X112673000Y-54196580D01*
X112711095Y-54234676D01*
X112787285Y-54272771D01*
X112863476Y-54272771D01*
X112939666Y-54234676D01*
X112977761Y-54196580D01*
X113015857Y-54120390D01*
X113015857Y-53853723D01*
X112634904Y-54806104D02*
X112634904Y-54882295D01*
X112673000Y-54958485D01*
X112711095Y-54996580D01*
X112787285Y-55034676D01*
X112939666Y-55072771D01*
X113130142Y-55072771D01*
X113282523Y-55034676D01*
X113358714Y-54996580D01*
X113396809Y-54958485D01*
X113434904Y-54882295D01*
X113434904Y-54806104D01*
X113396809Y-54729914D01*
X113358714Y-54691819D01*
X113282523Y-54653723D01*
X113130142Y-54615628D01*
X112939666Y-54615628D01*
X112787285Y-54653723D01*
X112711095Y-54691819D01*
X112673000Y-54729914D01*
X112634904Y-54806104D01*
X106983333Y-81399914D02*
X107021428Y-81438009D01*
X107135714Y-81476104D01*
X107211904Y-81476104D01*
X107326190Y-81438009D01*
X107402380Y-81361819D01*
X107440476Y-81285628D01*
X107478571Y-81133247D01*
X107478571Y-81018961D01*
X107440476Y-80866580D01*
X107402380Y-80790390D01*
X107326190Y-80714200D01*
X107211904Y-80676104D01*
X107135714Y-80676104D01*
X107021428Y-80714200D01*
X106983333Y-80752295D01*
X106716666Y-80676104D02*
X106183333Y-80676104D01*
X106526190Y-81476104D01*
X100341285Y-72408333D02*
X100303190Y-72446428D01*
X100265095Y-72560714D01*
X100265095Y-72636904D01*
X100303190Y-72751190D01*
X100379380Y-72827380D01*
X100455571Y-72865476D01*
X100607952Y-72903571D01*
X100722238Y-72903571D01*
X100874619Y-72865476D01*
X100950809Y-72827380D01*
X101027000Y-72751190D01*
X101065095Y-72636904D01*
X101065095Y-72560714D01*
X101027000Y-72446428D01*
X100988904Y-72408333D01*
X101065095Y-71722619D02*
X101065095Y-71875000D01*
X101027000Y-71951190D01*
X100988904Y-71989285D01*
X100874619Y-72065476D01*
X100722238Y-72103571D01*
X100417476Y-72103571D01*
X100341285Y-72065476D01*
X100303190Y-72027380D01*
X100265095Y-71951190D01*
X100265095Y-71798809D01*
X100303190Y-71722619D01*
X100341285Y-71684523D01*
X100417476Y-71646428D01*
X100607952Y-71646428D01*
X100684142Y-71684523D01*
X100722238Y-71722619D01*
X100760333Y-71798809D01*
X100760333Y-71951190D01*
X100722238Y-72027380D01*
X100684142Y-72065476D01*
X100607952Y-72103571D01*
X100265095Y-75405476D02*
X101065095Y-75405476D01*
X101065095Y-75215000D01*
X101027000Y-75100714D01*
X100950809Y-75024523D01*
X100874619Y-74986428D01*
X100722238Y-74948333D01*
X100607952Y-74948333D01*
X100455571Y-74986428D01*
X100379380Y-75024523D01*
X100303190Y-75100714D01*
X100265095Y-75215000D01*
X100265095Y-75405476D01*
X101065095Y-74681666D02*
X101065095Y-74148333D01*
X100265095Y-74491190D01*
X100684142Y-80218809D02*
X100646047Y-80104523D01*
X100607952Y-80066428D01*
X100531761Y-80028333D01*
X100417476Y-80028333D01*
X100341285Y-80066428D01*
X100303190Y-80104523D01*
X100265095Y-80180714D01*
X100265095Y-80485476D01*
X101065095Y-80485476D01*
X101065095Y-80218809D01*
X101027000Y-80142619D01*
X100988904Y-80104523D01*
X100912714Y-80066428D01*
X100836523Y-80066428D01*
X100760333Y-80104523D01*
X100722238Y-80142619D01*
X100684142Y-80218809D01*
X100684142Y-80485476D01*
X100798428Y-79342619D02*
X100265095Y-79342619D01*
X101103190Y-79533095D02*
X100531761Y-79723571D01*
X100531761Y-79228333D01*
X113015857Y-79520390D02*
X113053952Y-79634676D01*
X113092047Y-79672771D01*
X113168238Y-79710866D01*
X113282523Y-79710866D01*
X113358714Y-79672771D01*
X113396809Y-79634676D01*
X113434904Y-79558485D01*
X113434904Y-79253723D01*
X112634904Y-79253723D01*
X112634904Y-79520390D01*
X112673000Y-79596580D01*
X112711095Y-79634676D01*
X112787285Y-79672771D01*
X112863476Y-79672771D01*
X112939666Y-79634676D01*
X112977761Y-79596580D01*
X113015857Y-79520390D01*
X113015857Y-79253723D01*
X112711095Y-80015628D02*
X112673000Y-80053723D01*
X112634904Y-80129914D01*
X112634904Y-80320390D01*
X112673000Y-80396580D01*
X112711095Y-80434676D01*
X112787285Y-80472771D01*
X112863476Y-80472771D01*
X112977761Y-80434676D01*
X113434904Y-79977533D01*
X113434904Y-80472771D01*
%TD*%
%LPC*%
D12*
%TO.C,J3*%
X105580000Y-59575000D03*
X108120000Y-59575000D03*
X114470000Y-51955000D03*
X114470000Y-54495000D03*
X114470000Y-57035000D03*
X114470000Y-59575000D03*
X114470000Y-62115000D03*
X114470000Y-64655000D03*
X114470000Y-67195000D03*
X114470000Y-69735000D03*
X114470000Y-72275000D03*
X114470000Y-74815000D03*
X114470000Y-77355000D03*
X114470000Y-79895000D03*
X114470000Y-82435000D03*
X111930000Y-82435000D03*
X109390000Y-82435000D03*
X106850000Y-82435000D03*
X104310000Y-82435000D03*
X101770000Y-82435000D03*
X99230000Y-82435000D03*
X99230000Y-79895000D03*
X99230000Y-77355000D03*
X99230000Y-74815000D03*
X99230000Y-72275000D03*
X99230000Y-69735000D03*
X99230000Y-67195000D03*
X99230000Y-64655000D03*
X99230000Y-62115000D03*
X99230000Y-59575000D03*
X99230000Y-57035000D03*
X99230000Y-54495000D03*
X99230000Y-51955000D03*
%TD*%
D13*
%TO.C,J1*%
X112470000Y-51935000D03*
X101230000Y-51935000D03*
D14*
X101230000Y-55935000D03*
X112470000Y-55935000D03*
%TD*%
M02*
