%TF.GenerationSoftware,KiCad,Pcbnew,(6.0.1)*%
%TF.CreationDate,2022-01-23T22:32:30+01:00*%
%TF.ProjectId,pluto,706c7574-6f2e-46b6-9963-61645f706362,1.0*%
%TF.SameCoordinates,Original*%
%TF.FileFunction,Paste,Top*%
%TF.FilePolarity,Positive*%
%FSLAX46Y46*%
G04 Gerber Fmt 4.6, Leading zero omitted, Abs format (unit mm)*
G04 Created by KiCad (PCBNEW (6.0.1)) date 2022-01-23 22:32:30*
%MOMM*%
%LPD*%
G01*
G04 APERTURE LIST*
G04 Aperture macros list*
%AMRoundRect*
0 Rectangle with rounded corners*
0 $1 Rounding radius*
0 $2 $3 $4 $5 $6 $7 $8 $9 X,Y pos of 4 corners*
0 Add a 4 corners polygon primitive as box body*
4,1,4,$2,$3,$4,$5,$6,$7,$8,$9,$2,$3,0*
0 Add four circle primitives for the rounded corners*
1,1,$1+$1,$2,$3*
1,1,$1+$1,$4,$5*
1,1,$1+$1,$6,$7*
1,1,$1+$1,$8,$9*
0 Add four rect primitives between the rounded corners*
20,1,$1+$1,$2,$3,$4,$5,0*
20,1,$1+$1,$4,$5,$6,$7,0*
20,1,$1+$1,$6,$7,$8,$9,0*
20,1,$1+$1,$8,$9,$2,$3,0*%
G04 Aperture macros list end*
%ADD10RoundRect,0.225000X0.225000X0.250000X-0.225000X0.250000X-0.225000X-0.250000X0.225000X-0.250000X0*%
%ADD11RoundRect,0.200000X-0.275000X0.200000X-0.275000X-0.200000X0.275000X-0.200000X0.275000X0.200000X0*%
%ADD12RoundRect,0.062500X-0.475000X0.062500X-0.475000X-0.062500X0.475000X-0.062500X0.475000X0.062500X0*%
%ADD13RoundRect,0.062500X-0.062500X0.475000X-0.062500X-0.475000X0.062500X-0.475000X0.062500X0.475000X0*%
%ADD14RoundRect,0.250000X-0.275000X0.275000X-0.275000X-0.275000X0.275000X-0.275000X0.275000X0.275000X0*%
%ADD15RoundRect,0.200000X0.275000X-0.200000X0.275000X0.200000X-0.275000X0.200000X-0.275000X-0.200000X0*%
%ADD16RoundRect,0.243750X-0.456250X0.243750X-0.456250X-0.243750X0.456250X-0.243750X0.456250X0.243750X0*%
%ADD17RoundRect,0.225000X0.250000X-0.225000X0.250000X0.225000X-0.250000X0.225000X-0.250000X-0.225000X0*%
%ADD18RoundRect,0.150000X-0.150000X0.512500X-0.150000X-0.512500X0.150000X-0.512500X0.150000X0.512500X0*%
%ADD19RoundRect,0.230000X0.400000X0.310000X-0.400000X0.310000X-0.400000X-0.310000X0.400000X-0.310000X0*%
%ADD20RoundRect,0.170000X-0.330000X0.255000X-0.330000X-0.255000X0.330000X-0.255000X0.330000X0.255000X0*%
%ADD21RoundRect,0.225000X-0.250000X0.225000X-0.250000X-0.225000X0.250000X-0.225000X0.250000X0.225000X0*%
%ADD22RoundRect,0.275000X0.275000X-0.275000X0.275000X0.275000X-0.275000X0.275000X-0.275000X-0.275000X0*%
%ADD23R,0.600000X1.150000*%
%ADD24R,0.300000X1.150000*%
%ADD25RoundRect,0.170000X0.255000X0.330000X-0.255000X0.330000X-0.255000X-0.330000X0.255000X-0.330000X0*%
%ADD26RoundRect,0.137500X-0.137500X0.212500X-0.137500X-0.212500X0.137500X-0.212500X0.137500X0.212500X0*%
G04 APERTURE END LIST*
D10*
%TO.C,C9*%
X108915000Y-65655000D03*
X110465000Y-65655000D03*
%TD*%
D11*
%TO.C,R6*%
X110010000Y-80150000D03*
X110010000Y-78500000D03*
%TD*%
D12*
%TO.C,U2*%
X110197500Y-69935000D03*
X110197500Y-70435000D03*
X110197500Y-70935000D03*
X110197500Y-71435000D03*
X110197500Y-71935000D03*
X110197500Y-72435000D03*
X110197500Y-72935000D03*
X110197500Y-73435000D03*
X110197500Y-73935000D03*
X110197500Y-74435000D03*
X110197500Y-74935000D03*
D13*
X109360000Y-75772500D03*
X108860000Y-75772500D03*
X108360000Y-75772500D03*
X107860000Y-75772500D03*
X107360000Y-75772500D03*
X106860000Y-75772500D03*
X106360000Y-75772500D03*
X105860000Y-75772500D03*
X105360000Y-75772500D03*
X104860000Y-75772500D03*
X104360000Y-75772500D03*
D12*
X103522500Y-74935000D03*
X103522500Y-74435000D03*
X103522500Y-73935000D03*
X103522500Y-73435000D03*
X103522500Y-72935000D03*
X103522500Y-72435000D03*
X103522500Y-71935000D03*
X103522500Y-71435000D03*
X103522500Y-70935000D03*
X103522500Y-70435000D03*
X103522500Y-69935000D03*
D13*
X104360000Y-69097500D03*
X104860000Y-69097500D03*
X105360000Y-69097500D03*
X105860000Y-69097500D03*
X106360000Y-69097500D03*
X106860000Y-69097500D03*
X107360000Y-69097500D03*
X107860000Y-69097500D03*
X108360000Y-69097500D03*
X108860000Y-69097500D03*
X109360000Y-69097500D03*
D14*
X104910000Y-74385000D03*
X107510000Y-71785000D03*
X107510000Y-73085000D03*
X104910000Y-73085000D03*
X106210000Y-73085000D03*
X108810000Y-74385000D03*
X107510000Y-74385000D03*
X106210000Y-74385000D03*
X104910000Y-71785000D03*
X106210000Y-70485000D03*
X107510000Y-70485000D03*
X104910000Y-70485000D03*
X106210000Y-71785000D03*
X108810000Y-73085000D03*
X108810000Y-70485000D03*
X108810000Y-71785000D03*
%TD*%
D15*
%TO.C,R1*%
X111290000Y-57240000D03*
X111290000Y-58890000D03*
%TD*%
D16*
%TO.C,F1*%
X102430000Y-61992500D03*
X102430000Y-60117500D03*
%TD*%
D17*
%TO.C,C6*%
X108460000Y-78510000D03*
X108460000Y-80060000D03*
%TD*%
D18*
%TO.C,U1*%
X107790000Y-63682500D03*
X106840000Y-63682500D03*
X105890000Y-63682500D03*
X105890000Y-61407500D03*
X106840000Y-61407500D03*
X107790000Y-61407500D03*
%TD*%
D17*
%TO.C,C7*%
X102520000Y-63260000D03*
X102520000Y-64810000D03*
%TD*%
D19*
%TO.C,Y1*%
X106200000Y-80085000D03*
X104000000Y-80085000D03*
X104000000Y-78385000D03*
X106200000Y-78385000D03*
%TD*%
D20*
%TO.C,FB2*%
X110290000Y-63075000D03*
X110290000Y-61475000D03*
%TD*%
D21*
%TO.C,C4*%
X111930000Y-76210000D03*
X111930000Y-74660000D03*
%TD*%
D11*
%TO.C,R2*%
X102400000Y-58885000D03*
X102400000Y-57235000D03*
%TD*%
D21*
%TO.C,C1*%
X108950000Y-63040000D03*
X108950000Y-61490000D03*
%TD*%
%TO.C,C5*%
X102180000Y-79940000D03*
X102180000Y-78390000D03*
%TD*%
D22*
%TO.C,D1*%
X104040000Y-62227500D03*
X104040000Y-65027500D03*
%TD*%
D23*
%TO.C,J1*%
X110050000Y-57135000D03*
X109250000Y-57135000D03*
D24*
X108600000Y-57135000D03*
X107600000Y-57135000D03*
X106100000Y-57135000D03*
X105100000Y-57135000D03*
D23*
X104450000Y-57135000D03*
X103650000Y-57135000D03*
X103650000Y-57135000D03*
X104450000Y-57135000D03*
D24*
X105600000Y-57135000D03*
X106600000Y-57135000D03*
X107100000Y-57135000D03*
X108100000Y-57135000D03*
D23*
X109250000Y-57135000D03*
X110050000Y-57135000D03*
%TD*%
D10*
%TO.C,C10*%
X103265000Y-66665000D03*
X104815000Y-66665000D03*
%TD*%
D17*
%TO.C,C8*%
X111740000Y-65520000D03*
X111740000Y-67070000D03*
%TD*%
D25*
%TO.C,FB1*%
X110000000Y-60175000D03*
X111600000Y-60175000D03*
%TD*%
D11*
%TO.C,R3*%
X101930000Y-67620000D03*
X101930000Y-65970000D03*
%TD*%
D26*
%TO.C,SW1*%
X111085000Y-80045000D03*
X111085000Y-77345000D03*
X112235000Y-77345000D03*
X112235000Y-80045000D03*
%TD*%
D10*
%TO.C,C2*%
X108925000Y-64335000D03*
X110475000Y-64335000D03*
%TD*%
D15*
%TO.C,R4*%
X106160000Y-65070000D03*
X106160000Y-66720000D03*
%TD*%
D10*
%TO.C,C3*%
X110285000Y-68475000D03*
X111835000Y-68475000D03*
%TD*%
D15*
%TO.C,R5*%
X107550000Y-65070000D03*
X107550000Y-66720000D03*
%TD*%
M02*
