M48
; DRILL file {KiCad (6.0.1)} date Sun 23 Jan 2022 10:32:26 PM CET
; FORMAT={-:-/ absolute / metric / decimal}
; #@! TF.CreationDate,2022-01-23T22:32:26+01:00
; #@! TF.GenerationSoftware,Kicad,Pcbnew,(6.0.1)
; #@! TF.FileFunction,MixedPlating,1,2
FMAT,2
METRIC
; #@! TA.AperFunction,Plated,PTH,ViaDrill
T1C0.300
; #@! TA.AperFunction,Plated,PTH,ViaDrill
T2C0.400
; #@! TA.AperFunction,Plated,PTH,ComponentDrill
T3C0.600
; #@! TA.AperFunction,Plated,PTH,ComponentDrill
T4C1.092
%
G90
G05
T1
X99.89Y-68.385
X100.289Y-70.956
X100.333Y-68.993
X100.479Y-70.227
X100.498Y-82.038
X101.014Y-58.041
X101.264Y-75.367
X101.272Y-64.445
X102.01Y-66.903
X102.347Y-69.346
X102.451Y-70.983
X102.513Y-68.612
X102.585Y-71.723
X102.589Y-72.549
X102.97Y-77.625
X103.03Y-81.498
X103.421Y-67.957
X104.282Y-68.709
X104.466Y-67.957
X104.524Y-77.27
X105.14Y-77.702
X105.153Y-78.455
X105.219Y-67.957
X105.227Y-66.445
X105.57Y-81.505
X105.81Y-76.593
X105.977Y-67.957
X106.66Y-77.305
X107.263Y-58.309
X107.289Y-68.016
X107.291Y-77.715
X107.39Y-80.662
X107.844Y-77.042
X108.396Y-77.608
X109.106Y-79.285
X109.515Y-67.532
X109.519Y-77.603
X110.0Y-75.807
X110.362Y-76.467
X110.43Y-69.507
X110.864Y-77.999
X110.944Y-71.935
X111.03Y-62.351
X111.173Y-71.117
X111.235Y-79.44
X111.702Y-69.977
X111.731Y-69.307
X111.934Y-75.241
X112.751Y-80.71
X113.255Y-60.608
X113.321Y-70.964
X113.615Y-73.292
X113.72Y-76.055
T2
X102.92Y-65.075
X104.06Y-63.475
X104.376Y-60.551
X104.425Y-58.21
X106.81Y-62.938
X108.586Y-66.758
X108.94Y-62.037
X109.451Y-58.237
X109.472Y-64.345
X109.917Y-65.445
X110.21Y-67.038
X110.622Y-60.155
X111.75Y-65.062
X112.322Y-58.695
T4
X99.23Y-51.955
X99.23Y-54.495
X99.23Y-57.035
X99.23Y-59.575
X99.23Y-62.115
X99.23Y-64.655
X99.23Y-67.195
X99.23Y-69.735
X99.23Y-72.275
X99.23Y-74.815
X99.23Y-77.355
X99.23Y-79.895
X99.23Y-82.435
X101.77Y-82.435
X104.31Y-82.435
X105.58Y-59.575
X106.85Y-82.435
X108.12Y-59.575
X109.39Y-82.435
X111.93Y-82.435
X114.47Y-51.955
X114.47Y-54.495
X114.47Y-57.035
X114.47Y-59.575
X114.47Y-62.115
X114.47Y-64.655
X114.47Y-67.195
X114.47Y-69.735
X114.47Y-72.275
X114.47Y-74.815
X114.47Y-77.355
X114.47Y-79.895
X114.47Y-82.435
T3
G00X101.23Y-52.535
M15
G01X101.23Y-51.335
M16
G05
G00X101.23Y-56.335
M15
G01X101.23Y-55.535
M16
G05
G00X112.47Y-52.535
M15
G01X112.47Y-51.335
M16
G05
G00X112.47Y-56.335
M15
G01X112.47Y-55.535
M16
G05
T0
M30
